<svg width="9" height="13" viewBox="0 0 9 13" fill="none" xmlns="http://www.w3.org/2000/svg">
<path d="M0.768555 0.423584C0.768555 1.98608 1.67133 3.4097 3.08337 4.08099V12.5764H4.24078V8.52544H5.39818V12.5764H6.55559V4.0752C7.96763 3.4097 8.87041 1.98608 8.87041 0.423584H7.713C7.713 1.19099 7.40815 1.92697 6.86551 2.46961C6.59682 2.7383 6.27784 2.95143 5.92678 3.09685C5.57572 3.24226 5.19946 3.3171 4.81948 3.3171C4.05207 3.3171 3.31609 3.01225 2.77345 2.46961C2.23081 1.92697 1.92596 1.19099 1.92596 0.423584M4.81948 0.423584C4.17712 0.423584 3.66207 0.93863 3.66207 1.58099C3.66207 2.22335 4.17712 2.7384 4.81948 2.7384C5.46184 2.7384 5.97689 2.22335 5.97689 1.58099C5.97689 0.93863 5.46184 0.423584 4.81948 0.423584Z" fill="white"/>
</svg>
